<svg width="580" height="427" viewBox="0 0 580 427" fill="none" xmlns="http://www.w3.org/2000/svg">
<rect width="580" height="298" rx="16" fill="#35068C"/>
<path d="M498.629 64.2898H499.967V61.5952H502.661V60.2578H499.967V57.5682H498.629V60.2578H495.94V61.5952H498.629V64.2898ZM508.944 55.8182H507.447L504.907 57.4787V58.9503L507.343 57.3594H507.403V66H508.944V55.8182ZM511.838 66H518.54V64.6825H513.956V64.608L515.979 62.4901C517.844 60.6058 518.376 59.706 518.376 58.5675C518.376 56.9318 517.043 55.679 515.124 55.679C513.22 55.679 511.828 56.9119 511.828 58.7713H513.295C513.29 57.6776 513.996 56.9616 515.094 56.9616C516.129 56.9616 516.914 57.598 516.914 58.6122C516.914 59.5121 516.377 60.1584 515.283 61.3168L511.838 64.8864V66ZM523.925 66.1392C525.973 66.1392 527.435 64.6925 527.43 62.7088C527.435 60.7401 526.063 59.3082 524.208 59.3082C523.453 59.3082 522.752 59.5966 522.354 59.9844H522.294L522.617 57.1357H526.938V55.8182H521.34L520.768 60.9489L522.175 61.1577C522.558 60.8146 523.244 60.581 523.86 60.581C525.068 60.5909 525.943 61.4957 525.943 62.7386C525.943 63.9616 525.093 64.8466 523.925 64.8466C522.94 64.8466 522.16 64.2202 522.08 63.3452H520.589C520.649 64.9659 522.055 66.1392 523.925 66.1392ZM534.7 64.0909C534.705 65.2393 535.426 66.2088 536.773 66.2088C538.106 66.2088 538.837 65.2393 538.837 64.0909V63.554C538.837 62.4006 538.126 61.4361 536.773 61.4361C535.446 61.4361 534.705 62.4055 534.7 63.554V64.0909ZM529.58 58.2642C529.58 59.4126 530.305 60.3821 531.653 60.3821C532.98 60.3821 533.716 59.4176 533.711 58.2642V57.7273C533.716 56.5739 533 55.6094 531.653 55.6094C530.33 55.6094 529.58 56.5739 529.58 57.7273V58.2642ZM529.997 66H531.185L538.185 55.8182H536.997L529.997 66ZM535.859 63.554C535.864 62.9822 536.112 62.4304 536.773 62.4304C537.46 62.4304 537.673 62.9822 537.673 63.554V64.0909C537.673 64.6626 537.44 65.2145 536.773 65.2145C536.097 65.2145 535.864 64.6577 535.859 64.0909V63.554ZM530.743 57.7273C530.743 57.1605 530.991 56.6037 531.653 56.6037C532.339 56.6037 532.553 57.1555 532.553 57.7273V58.2642C532.553 58.8359 532.319 59.3878 531.653 59.3878C530.977 59.3878 530.743 58.8359 530.743 58.2642V57.7273Z" fill="#42FFFF"/>
<path d="M100.375 87.1392C102.622 87.1392 103.915 85.2351 103.915 81.9091C103.915 78.608 102.602 76.679 100.375 76.679C98.1477 76.679 96.8352 78.608 96.8352 81.9091C96.8352 85.2351 98.1278 87.1392 100.375 87.1392ZM100.375 86.0455C98.8935 86.0455 98.0284 84.5589 98.0284 81.9091C98.0284 79.2642 98.9034 77.7528 100.375 77.7528C101.847 77.7528 102.722 79.2642 102.722 81.9091C102.722 84.5589 101.857 86.0455 100.375 86.0455ZM106.464 87.0795C106.956 87.0795 107.358 86.6768 107.358 86.1847C107.358 85.6925 106.956 85.2898 106.464 85.2898C105.971 85.2898 105.569 85.6925 105.569 86.1847C105.569 86.6768 105.971 87.0795 106.464 87.0795ZM112.55 87.1392C114.797 87.1392 116.089 85.2351 116.089 81.9091C116.089 78.608 114.777 76.679 112.55 76.679C110.322 76.679 109.01 78.608 109.01 81.9091C109.01 85.2351 110.302 87.1392 112.55 87.1392ZM112.55 86.0455C111.068 86.0455 110.203 84.5589 110.203 81.9091C110.203 79.2642 111.078 77.7528 112.55 77.7528C114.021 77.7528 114.896 79.2642 114.896 81.9091C114.896 84.5589 114.031 86.0455 112.55 86.0455ZM121.44 87.1392C123.687 87.1392 124.979 85.2351 124.979 81.9091C124.979 78.608 123.667 76.679 121.44 76.679C119.212 76.679 117.9 78.608 117.9 81.9091C117.9 85.2351 119.192 87.1392 121.44 87.1392ZM121.44 86.0455C119.958 86.0455 119.093 84.5589 119.093 81.9091C119.093 79.2642 119.968 77.7528 121.44 77.7528C122.911 77.7528 123.786 79.2642 123.786 81.9091C123.786 84.5589 122.921 86.0455 121.44 86.0455ZM130.33 87.1392C132.577 87.1392 133.869 85.2351 133.869 81.9091C133.869 78.608 132.557 76.679 130.33 76.679C128.102 76.679 126.79 78.608 126.79 81.9091C126.79 85.2351 128.082 87.1392 130.33 87.1392ZM130.33 86.0455C128.848 86.0455 127.983 84.5589 127.983 81.9091C127.983 79.2642 128.858 77.7528 130.33 77.7528C131.801 77.7528 132.676 79.2642 132.676 81.9091C132.676 84.5589 131.811 86.0455 130.33 86.0455ZM139.16 87.1392C141.193 87.1392 142.61 85.951 142.62 84.2955C142.61 83.0078 141.75 81.9141 140.651 81.7102V81.6506C141.606 81.402 142.232 80.4673 142.242 79.3835C142.232 77.8324 140.93 76.679 139.16 76.679C137.37 76.679 136.068 77.8324 136.077 79.3835C136.068 80.4673 136.694 81.402 137.668 81.6506V81.7102C136.55 81.9141 135.69 83.0078 135.7 84.2955C135.69 85.951 137.107 87.1392 139.16 87.1392ZM139.16 86.0455C137.763 86.0455 136.903 85.3295 136.913 84.2358C136.903 83.0874 137.852 82.267 139.16 82.267C140.448 82.267 141.397 83.0874 141.407 84.2358C141.397 85.3295 140.537 86.0455 139.16 86.0455ZM139.16 81.2131C138.046 81.2131 137.261 80.517 137.271 79.4631C137.261 78.429 138.016 77.7528 139.16 77.7528C140.283 77.7528 141.039 78.429 141.049 79.4631C141.039 80.517 140.254 81.2131 139.16 81.2131ZM147.986 87.1392C150.234 87.1392 151.526 85.2351 151.526 81.9091C151.526 78.608 150.214 76.679 147.986 76.679C145.759 76.679 144.447 78.608 144.447 81.9091C144.447 85.2351 145.739 87.1392 147.986 87.1392ZM147.986 86.0455C146.505 86.0455 145.64 84.5589 145.64 81.9091C145.64 79.2642 146.515 77.7528 147.986 77.7528C149.458 77.7528 150.333 79.2642 150.333 81.9091C150.333 84.5589 149.468 86.0455 147.986 86.0455ZM157.812 87H161.491C163.897 87 164.891 85.8267 164.891 84.2955C164.891 82.6847 163.778 81.8097 162.843 81.75V81.6506C163.718 81.4119 164.494 80.8352 164.494 79.5227C164.494 78.0312 163.499 76.8182 161.372 76.8182H157.812V87ZM159.045 85.9062V82.3665H161.551C162.883 82.3665 163.718 83.2614 163.718 84.2955C163.718 85.1903 163.102 85.9062 161.491 85.9062H159.045ZM159.045 81.2926V77.9119H161.372C162.724 77.9119 163.32 78.6278 163.32 79.5227C163.32 80.5966 162.445 81.2926 161.332 81.2926H159.045ZM166.501 77.9119H169.702V87H170.935V77.9119H174.137V76.8182H166.501V77.9119ZM183.949 80C183.571 77.9119 181.901 76.679 179.853 76.679C177.247 76.679 175.358 78.6875 175.358 81.9091C175.358 85.1307 177.247 87.1392 179.853 87.1392C181.901 87.1392 183.571 85.9062 183.949 83.8182H182.716C182.418 85.2301 181.205 85.9858 179.853 85.9858C178.003 85.9858 176.551 84.554 176.551 81.9091C176.551 79.2642 178.003 77.8324 179.853 77.8324C181.205 77.8324 182.418 78.5881 182.716 80H183.949Z" fill="#F2F2F2"/>
<path d="M97.517 63H104.974C108.895 63 110.983 60.9545 110.983 58.1761C110.983 55.5938 109.134 54.0341 107.148 53.9403V53.7699C108.963 53.3608 110.301 52.0739 110.301 50.0199C110.301 47.4034 108.358 45.5455 104.506 45.5455H97.517V63ZM101.207 59.983V55.3466H104.301C106.074 55.3466 107.173 56.3693 107.173 57.8097C107.173 59.1222 106.278 59.983 104.216 59.983H101.207ZM101.207 52.8494V48.5284H104.011C105.648 48.5284 106.577 49.3722 106.577 50.6335C106.577 52.0142 105.452 52.8494 103.943 52.8494H101.207ZM113.316 63H116.947V49.9091H113.316V63ZM115.14 48.2216C116.222 48.2216 117.109 47.3949 117.109 46.3807C117.109 45.375 116.222 44.5483 115.14 44.5483C114.066 44.5483 113.18 45.375 113.18 46.3807C113.18 47.3949 114.066 48.2216 115.14 48.2216ZM126.818 49.9091H124.355V46.7727H120.724V49.9091H118.935V52.6364H120.724V59.4545C120.707 62.0199 122.455 63.2898 125.088 63.179C126.026 63.1449 126.69 62.9574 127.057 62.8381L126.486 60.1364C126.307 60.1705 125.923 60.2557 125.582 60.2557C124.858 60.2557 124.355 59.983 124.355 58.9773V52.6364H126.818V49.9091ZM134.957 63.2557C138.443 63.2557 140.634 61.2102 140.804 58.2017H137.378C137.165 59.5994 136.244 60.3835 135 60.3835C133.304 60.3835 132.205 58.9602 132.205 56.4545C132.205 53.983 133.312 52.5682 135 52.5682C136.33 52.5682 137.182 53.446 137.378 54.75H140.804C140.651 51.7244 138.358 49.7386 134.94 49.7386C130.969 49.7386 128.514 52.4915 128.514 56.5057C128.514 60.4858 130.926 63.2557 134.957 63.2557ZM149.043 63.2557C153.015 63.2557 155.487 60.5369 155.487 56.5057C155.487 52.4489 153.015 49.7386 149.043 49.7386C145.072 49.7386 142.6 52.4489 142.6 56.5057C142.6 60.5369 145.072 63.2557 149.043 63.2557ZM149.06 60.4432C147.228 60.4432 146.29 58.7642 146.29 56.4801C146.29 54.196 147.228 52.5085 149.06 52.5085C150.859 52.5085 151.796 54.196 151.796 56.4801C151.796 58.7642 150.859 60.4432 149.06 60.4432ZM157.847 63H161.478V49.9091H157.847V63ZM159.671 48.2216C160.754 48.2216 161.64 47.3949 161.64 46.3807C161.64 45.375 160.754 44.5483 159.671 44.5483C158.597 44.5483 157.711 45.375 157.711 46.3807C157.711 47.3949 158.597 48.2216 159.671 48.2216ZM168.017 55.4318C168.026 53.7443 169.031 52.7557 170.497 52.7557C171.955 52.7557 172.832 53.7102 172.824 55.3125V63H176.455V54.6648C176.455 51.6136 174.665 49.7386 171.938 49.7386C169.994 49.7386 168.588 50.6932 168 52.2188H167.847V49.9091H164.386V63H168.017V55.4318Z" fill="white"/>
<path opacity="0.7" d="M187.148 60H191.858C194.523 60 195.83 58.642 195.83 56.8295C195.83 55.0682 194.58 54.0341 193.341 53.9716V53.858C194.477 53.5909 195.375 52.7955 195.375 51.3807C195.375 49.6477 194.125 48.3636 191.602 48.3636H187.148V60ZM189.256 58.2386V54.8295H191.58C192.881 54.8295 193.688 55.625 193.688 56.6648C193.688 57.5909 193.051 58.2386 191.523 58.2386H189.256ZM189.256 53.3125V50.1023H191.386C192.625 50.1023 193.267 50.7557 193.267 51.6534C193.267 52.6761 192.438 53.3125 191.341 53.3125H189.256ZM197.152 50.1307H200.749V60H202.839V50.1307H206.436V48.3636H197.152V50.1307ZM217.686 52.2898C217.328 49.7045 215.339 48.2045 212.76 48.2045C209.72 48.2045 207.43 50.4205 207.43 54.1818C207.43 57.9375 209.692 60.1591 212.76 60.1591C215.527 60.1591 217.362 58.3693 217.686 56.1477L215.561 56.1364C215.294 57.5 214.18 58.267 212.788 58.267C210.902 58.267 209.55 56.8523 209.55 54.1818C209.55 51.5568 210.891 50.0966 212.794 50.0966C214.209 50.0966 215.317 50.8977 215.561 52.2898H217.686Z" fill="#CFCFCF"/>
<circle cx="60" cy="60" r="20" fill="#C4C4C4"/>
<g clip-path="url(#clip0_1_415)">
<path d="M79.4018 64.8367C76.7296 75.5567 65.8686 82.0732 55.1639 79.4009C44.4436 76.7287 37.927 65.8681 40.5993 55.1635C43.2715 44.4435 54.1168 37.927 64.8371 40.5993C75.5418 43.2559 82.0742 54.1165 79.4018 64.8367Z" fill="url(#paint0_linear_1_415)"/>
<path d="M69.5223 57.508C69.9129 54.8517 67.8973 53.4142 65.116 52.4611L66.0223 48.8517L63.8348 48.3049L62.9598 51.8205C62.3817 51.6799 61.7879 51.5392 61.1942 51.4142L62.0692 47.883L59.8817 47.3361L58.991 50.9299C58.5067 50.8205 58.0379 50.7111 57.5848 50.6017V50.5861L54.5535 49.8361L53.9754 52.1799C53.9754 52.1799 55.6004 52.5549 55.5692 52.5705C56.4598 52.7892 56.616 53.383 56.5848 53.8517L55.5535 57.9611C55.616 57.9767 55.6942 57.9924 55.7879 58.0392C55.7098 58.0236 55.6317 58.008 55.5535 57.9767L54.116 63.7267C54.0067 63.9924 53.7254 64.3986 53.116 64.2424C53.1317 64.2736 51.5223 63.8517 51.5223 63.8517L50.4285 66.3674L53.2879 67.0861C53.8192 67.2267 54.3348 67.3517 54.8504 67.4924L53.9442 71.133L56.1317 71.6799L57.0379 68.0705C57.6317 68.2267 58.2254 68.383 58.7879 68.5236L57.8973 72.1174L60.0848 72.6642L60.991 69.0236C64.741 69.7267 67.5535 69.4455 68.7254 66.0549C69.6785 63.3361 68.6785 61.758 66.7098 60.7267C68.1629 60.3986 69.241 59.4455 69.5223 57.508ZM64.5067 64.5392C63.8348 67.258 59.241 65.7892 57.7567 65.4142L58.9598 60.5861C60.4442 60.9611 65.2254 61.6955 64.5067 64.5392ZM65.1942 57.4611C64.5692 59.9455 60.7567 58.6799 59.5223 58.3674L60.616 53.9924C61.8504 54.3049 65.8348 54.883 65.1942 57.4611Z" fill="white"/>
</g>
<g filter="url(#filter0_b_1_415)">
<rect x="64" y="243" width="178" height="184" rx="16" fill="#491F98"/>
</g>
<path d="M84.0696 273.455V288H81.4347V273.455H84.0696ZM89.5803 281.608V288H87.0093V277.091H89.4667V278.945H89.5945C89.8455 278.334 90.2456 277.848 90.7948 277.489C91.3488 277.129 92.033 276.949 92.8474 276.949C93.6002 276.949 94.256 277.11 94.8147 277.432C95.3781 277.754 95.8138 278.22 96.1215 278.831C96.434 279.442 96.5879 280.183 96.5832 281.054V288H94.0121V281.452C94.0121 280.723 93.8228 280.152 93.444 279.74C93.0699 279.328 92.5514 279.122 91.8886 279.122C91.4388 279.122 91.0387 279.222 90.6883 279.42C90.3426 279.615 90.0704 279.896 89.8715 280.266C89.6774 280.635 89.5803 281.082 89.5803 281.608ZM104.155 288.213C103.066 288.213 102.131 287.974 101.35 287.496C100.573 287.018 99.9745 286.357 99.5531 285.514C99.1364 284.667 98.9281 283.691 98.9281 282.588C98.9281 281.48 99.1411 280.502 99.5673 279.655C99.9934 278.803 100.595 278.14 101.371 277.666C102.152 277.188 103.076 276.949 104.141 276.949C105.027 276.949 105.81 277.112 106.492 277.439C107.179 277.761 107.725 278.218 108.133 278.81C108.54 279.397 108.772 280.083 108.829 280.869H106.371C106.272 280.344 106.035 279.906 105.661 279.555C105.292 279.2 104.797 279.023 104.177 279.023C103.651 279.023 103.189 279.165 102.792 279.449C102.394 279.728 102.084 280.131 101.861 280.656C101.643 281.182 101.535 281.812 101.535 282.545C101.535 283.289 101.643 283.928 101.861 284.463C102.079 284.993 102.384 285.403 102.777 285.692C103.175 285.976 103.642 286.118 104.177 286.118C104.555 286.118 104.894 286.047 105.192 285.905C105.495 285.758 105.749 285.547 105.952 285.273C106.156 284.998 106.295 284.664 106.371 284.271H108.829C108.767 285.043 108.54 285.727 108.147 286.324C107.754 286.916 107.219 287.38 106.542 287.716C105.865 288.047 105.069 288.213 104.155 288.213ZM111.14 288V277.091H113.633V278.909H113.746C113.945 278.279 114.286 277.794 114.769 277.453C115.257 277.107 115.813 276.935 116.438 276.935C116.58 276.935 116.739 276.942 116.914 276.956C117.094 276.965 117.243 276.982 117.361 277.006V279.371C117.252 279.333 117.08 279.3 116.843 279.271C116.611 279.238 116.386 279.222 116.168 279.222C115.699 279.222 115.278 279.323 114.904 279.527C114.535 279.726 114.243 280.003 114.03 280.358C113.817 280.713 113.711 281.123 113.711 281.587V288H111.14ZM123.65 288.213C122.556 288.213 121.611 287.986 120.816 287.531C120.025 287.072 119.417 286.423 118.991 285.585C118.565 284.742 118.351 283.75 118.351 282.609C118.351 281.487 118.565 280.502 118.991 279.655C119.422 278.803 120.023 278.14 120.795 277.666C121.566 277.188 122.473 276.949 123.515 276.949C124.187 276.949 124.822 277.058 125.418 277.276C126.02 277.489 126.55 277.82 127.009 278.27C127.473 278.72 127.838 279.293 128.103 279.989C128.368 280.68 128.501 281.504 128.501 282.46V283.249H119.559V281.516H126.036C126.031 281.023 125.925 280.585 125.717 280.202C125.508 279.813 125.217 279.508 124.843 279.286C124.474 279.063 124.043 278.952 123.55 278.952C123.025 278.952 122.563 279.08 122.165 279.335C121.768 279.586 121.458 279.918 121.235 280.33C121.017 280.737 120.906 281.184 120.901 281.672V283.185C120.901 283.819 121.017 284.364 121.249 284.818C121.481 285.268 121.806 285.614 122.222 285.855C122.639 286.092 123.127 286.21 123.685 286.21C124.059 286.21 124.398 286.158 124.701 286.054C125.004 285.945 125.267 285.786 125.489 285.578C125.712 285.37 125.88 285.112 125.994 284.804L128.394 285.074C128.243 285.708 127.954 286.262 127.528 286.736C127.106 287.205 126.566 287.569 125.908 287.83C125.25 288.085 124.497 288.213 123.65 288.213ZM134.015 288.22C133.324 288.22 132.701 288.097 132.147 287.851C131.598 287.6 131.162 287.231 130.84 286.743C130.523 286.255 130.364 285.654 130.364 284.939C130.364 284.323 130.478 283.814 130.705 283.412C130.933 283.009 131.243 282.688 131.636 282.446C132.029 282.205 132.471 282.022 132.964 281.899C133.461 281.771 133.975 281.679 134.505 281.622C135.144 281.556 135.663 281.497 136.06 281.445C136.458 281.388 136.747 281.303 136.927 281.189C137.112 281.071 137.204 280.888 137.204 280.642V280.599C137.204 280.064 137.045 279.65 136.728 279.357C136.411 279.063 135.954 278.916 135.357 278.916C134.728 278.916 134.228 279.054 133.859 279.328C133.494 279.603 133.248 279.927 133.12 280.301L130.719 279.96C130.909 279.297 131.221 278.743 131.657 278.298C132.093 277.848 132.625 277.512 133.255 277.29C133.885 277.062 134.581 276.949 135.343 276.949C135.869 276.949 136.392 277.01 136.913 277.134C137.433 277.257 137.909 277.46 138.34 277.744C138.771 278.024 139.117 278.405 139.377 278.888C139.642 279.371 139.775 279.974 139.775 280.699V288H137.303V286.501H137.218C137.062 286.804 136.842 287.089 136.558 287.354C136.278 287.614 135.925 287.825 135.499 287.986C135.078 288.142 134.583 288.22 134.015 288.22ZM134.683 286.331C135.199 286.331 135.646 286.229 136.025 286.026C136.404 285.817 136.695 285.543 136.898 285.202C137.107 284.861 137.211 284.489 137.211 284.087V282.801C137.13 282.867 136.993 282.929 136.799 282.986C136.61 283.043 136.397 283.092 136.16 283.135C135.923 283.178 135.689 283.215 135.457 283.249C135.225 283.282 135.023 283.31 134.853 283.334C134.469 283.386 134.126 283.471 133.823 283.589C133.52 283.708 133.281 283.874 133.106 284.087C132.931 284.295 132.843 284.565 132.843 284.896C132.843 285.37 133.016 285.727 133.362 285.969C133.707 286.21 134.147 286.331 134.683 286.331ZM151.182 279.974L148.838 280.23C148.772 279.993 148.656 279.771 148.49 279.562C148.329 279.354 148.112 279.186 147.837 279.058C147.562 278.93 147.226 278.866 146.829 278.866C146.294 278.866 145.844 278.982 145.479 279.214C145.119 279.446 144.942 279.747 144.946 280.116C144.942 280.434 145.058 280.692 145.294 280.891C145.536 281.089 145.934 281.253 146.488 281.381L148.348 281.778C149.381 282.001 150.148 282.354 150.65 282.837C151.156 283.32 151.412 283.952 151.417 284.733C151.412 285.42 151.211 286.026 150.813 286.551C150.42 287.072 149.873 287.479 149.172 287.773C148.472 288.066 147.667 288.213 146.758 288.213C145.422 288.213 144.347 287.934 143.533 287.375C142.719 286.812 142.233 286.028 142.077 285.024L144.584 284.783C144.698 285.275 144.939 285.647 145.309 285.898C145.678 286.149 146.159 286.274 146.75 286.274C147.361 286.274 147.851 286.149 148.221 285.898C148.595 285.647 148.782 285.337 148.782 284.967C148.782 284.655 148.661 284.397 148.419 284.193C148.183 283.99 147.813 283.833 147.312 283.724L145.451 283.334C144.404 283.116 143.63 282.749 143.128 282.233C142.626 281.712 142.378 281.054 142.383 280.259C142.378 279.586 142.56 279.004 142.929 278.511C143.303 278.014 143.822 277.631 144.485 277.361C145.152 277.086 145.922 276.949 146.793 276.949C148.071 276.949 149.078 277.221 149.812 277.766C150.55 278.31 151.007 279.046 151.182 279.974ZM158.566 288.213C157.472 288.213 156.528 287.986 155.732 287.531C154.942 287.072 154.333 286.423 153.907 285.585C153.481 284.742 153.268 283.75 153.268 282.609C153.268 281.487 153.481 280.502 153.907 279.655C154.338 278.803 154.939 278.14 155.711 277.666C156.483 277.188 157.39 276.949 158.431 276.949C159.104 276.949 159.738 277.058 160.335 277.276C160.936 277.489 161.466 277.82 161.926 278.27C162.39 278.72 162.754 279.293 163.019 279.989C163.284 280.68 163.417 281.504 163.417 282.46V283.249H154.475V281.516H160.953C160.948 281.023 160.841 280.585 160.633 280.202C160.425 279.813 160.133 279.508 159.759 279.286C159.39 279.063 158.959 278.952 158.467 278.952C157.941 278.952 157.48 279.08 157.082 279.335C156.684 279.586 156.374 279.918 156.151 280.33C155.934 280.737 155.822 281.184 155.818 281.672V283.185C155.818 283.819 155.934 284.364 156.166 284.818C156.398 285.268 156.722 285.614 157.139 285.855C157.555 286.092 158.043 286.21 158.602 286.21C158.976 286.21 159.314 286.158 159.617 286.054C159.92 285.945 160.183 285.786 160.406 285.578C160.628 285.37 160.796 285.112 160.91 284.804L163.311 285.074C163.159 285.708 162.87 286.262 162.444 286.736C162.023 287.205 161.483 287.569 160.825 287.83C160.167 288.085 159.414 288.213 158.566 288.213ZM170.953 288V277.091H173.524V288H170.953ZM172.246 275.543C171.838 275.543 171.488 275.408 171.195 275.138C170.901 274.863 170.754 274.534 170.754 274.151C170.754 273.762 170.901 273.433 171.195 273.163C171.488 272.889 171.838 272.751 172.246 272.751C172.658 272.751 173.008 272.889 173.297 273.163C173.59 273.433 173.737 273.762 173.737 274.151C173.737 274.534 173.59 274.863 173.297 275.138C173.008 275.408 172.658 275.543 172.246 275.543ZM178.939 281.608V288H176.368V277.091H178.825V278.945H178.953C179.204 278.334 179.604 277.848 180.153 277.489C180.707 277.129 181.392 276.949 182.206 276.949C182.959 276.949 183.615 277.11 184.173 277.432C184.737 277.754 185.172 278.22 185.48 278.831C185.793 279.442 185.946 280.183 185.942 281.054V288H183.371V281.452C183.371 280.723 183.181 280.152 182.803 279.74C182.429 279.328 181.91 279.122 181.247 279.122C180.797 279.122 180.397 279.222 180.047 279.42C179.701 279.615 179.429 279.896 179.23 280.266C179.036 280.635 178.939 281.082 178.939 281.608ZM80.7955 303.663V301.455H92.4006V303.663H87.9048V316H85.2912V303.663H80.7955ZM93.5913 316V305.091H96.0842V306.909H96.1979C96.3967 306.279 96.7376 305.794 97.2206 305.453C97.7083 305.107 98.2646 304.935 98.8896 304.935C99.0317 304.935 99.1903 304.942 99.3655 304.956C99.5454 304.965 99.6946 304.982 99.8129 305.006V307.371C99.704 307.333 99.5312 307.3 99.2945 307.271C99.0625 307.238 98.8375 307.222 98.6197 307.222C98.151 307.222 97.7296 307.323 97.3555 307.527C96.9862 307.726 96.695 308.003 96.482 308.358C96.2689 308.713 96.1624 309.123 96.1624 309.587V316H93.5913ZM104.665 316.22C103.974 316.22 103.351 316.097 102.797 315.851C102.248 315.6 101.812 315.231 101.49 314.743C101.173 314.255 101.014 313.654 101.014 312.939C101.014 312.323 101.128 311.814 101.355 311.412C101.583 311.009 101.893 310.688 102.286 310.446C102.679 310.205 103.121 310.022 103.614 309.899C104.111 309.771 104.625 309.679 105.155 309.622C105.794 309.556 106.313 309.497 106.71 309.445C107.108 309.388 107.397 309.303 107.577 309.189C107.762 309.071 107.854 308.888 107.854 308.642V308.599C107.854 308.064 107.695 307.65 107.378 307.357C107.061 307.063 106.604 306.916 106.007 306.916C105.378 306.916 104.878 307.054 104.509 307.328C104.144 307.603 103.898 307.927 103.77 308.301L101.369 307.96C101.559 307.297 101.871 306.743 102.307 306.298C102.743 305.848 103.275 305.512 103.905 305.29C104.535 305.062 105.231 304.949 105.993 304.949C106.519 304.949 107.042 305.01 107.563 305.134C108.083 305.257 108.559 305.46 108.99 305.744C109.421 306.024 109.767 306.405 110.027 306.888C110.292 307.371 110.425 307.974 110.425 308.699V316H107.953V314.501H107.868C107.712 314.804 107.492 315.089 107.208 315.354C106.928 315.614 106.575 315.825 106.149 315.986C105.728 316.142 105.233 316.22 104.665 316.22ZM105.333 314.331C105.849 314.331 106.296 314.229 106.675 314.026C107.054 313.817 107.345 313.543 107.548 313.202C107.757 312.861 107.861 312.489 107.861 312.087V310.801C107.78 310.867 107.643 310.929 107.449 310.986C107.26 311.043 107.047 311.092 106.81 311.135C106.573 311.178 106.339 311.215 106.107 311.249C105.875 311.282 105.673 311.31 105.503 311.334C105.119 311.386 104.776 311.471 104.473 311.589C104.17 311.708 103.931 311.874 103.756 312.087C103.581 312.295 103.493 312.565 103.493 312.896C103.493 313.37 103.666 313.727 104.012 313.969C104.357 314.21 104.797 314.331 105.333 314.331ZM117.258 316.192C116.401 316.192 115.634 315.972 114.957 315.531C114.28 315.091 113.745 314.452 113.352 313.614C112.959 312.776 112.763 311.758 112.763 310.56C112.763 309.348 112.962 308.325 113.359 307.491C113.762 306.653 114.304 306.021 114.986 305.595C115.667 305.164 116.427 304.949 117.265 304.949C117.905 304.949 118.43 305.058 118.842 305.276C119.254 305.489 119.581 305.747 119.822 306.05C120.064 306.348 120.251 306.63 120.383 306.895H120.49V301.455H123.068V316H120.54V314.281H120.383C120.251 314.546 120.059 314.828 119.808 315.126C119.557 315.42 119.226 315.671 118.814 315.879C118.402 316.088 117.883 316.192 117.258 316.192ZM117.976 314.082C118.52 314.082 118.984 313.936 119.368 313.642C119.751 313.344 120.042 312.929 120.241 312.399C120.44 311.869 120.54 311.251 120.54 310.545C120.54 309.84 120.44 309.227 120.241 308.706C120.047 308.185 119.758 307.78 119.375 307.491C118.996 307.203 118.53 307.058 117.976 307.058C117.403 307.058 116.925 307.207 116.541 307.506C116.158 307.804 115.869 308.216 115.675 308.741C115.48 309.267 115.383 309.868 115.383 310.545C115.383 311.227 115.48 311.836 115.675 312.371C115.873 312.901 116.165 313.32 116.548 313.628C116.936 313.931 117.412 314.082 117.976 314.082ZM130.837 316.213C129.744 316.213 128.799 315.986 128.003 315.531C127.213 315.072 126.604 314.423 126.178 313.585C125.752 312.742 125.539 311.75 125.539 310.609C125.539 309.487 125.752 308.502 126.178 307.655C126.609 306.803 127.21 306.14 127.982 305.666C128.754 305.188 129.661 304.949 130.702 304.949C131.375 304.949 132.009 305.058 132.606 305.276C133.207 305.489 133.737 305.82 134.197 306.27C134.661 306.72 135.025 307.293 135.29 307.989C135.556 308.68 135.688 309.504 135.688 310.46V311.249H126.746V309.516H133.224C133.219 309.023 133.112 308.585 132.904 308.202C132.696 307.813 132.405 307.508 132.03 307.286C131.661 307.063 131.23 306.952 130.738 306.952C130.212 306.952 129.751 307.08 129.353 307.335C128.955 307.586 128.645 307.918 128.423 308.33C128.205 308.737 128.093 309.184 128.089 309.672V311.185C128.089 311.819 128.205 312.364 128.437 312.818C128.669 313.268 128.993 313.614 129.41 313.855C129.826 314.092 130.314 314.21 130.873 314.21C131.247 314.21 131.585 314.158 131.888 314.054C132.191 313.945 132.454 313.786 132.677 313.578C132.899 313.37 133.067 313.112 133.181 312.804L135.582 313.074C135.43 313.708 135.141 314.262 134.715 314.736C134.294 315.205 133.754 315.569 133.096 315.83C132.438 316.085 131.685 316.213 130.837 316.213Z" fill="white"/>
<path d="M87.7727 390.273C87.7045 389.697 87.428 389.25 86.9432 388.932C86.4583 388.614 85.8636 388.455 85.1591 388.455C84.6439 388.455 84.1932 388.538 83.8068 388.705C83.4242 388.871 83.125 389.1 82.9091 389.392C82.697 389.684 82.5909 390.015 82.5909 390.386C82.5909 390.697 82.6648 390.964 82.8125 391.188C82.964 391.407 83.1572 391.591 83.392 391.739C83.6269 391.883 83.8731 392.002 84.1307 392.097C84.3883 392.187 84.625 392.261 84.8409 392.318L86.0227 392.636C86.3258 392.716 86.6629 392.826 87.0341 392.966C87.4091 393.106 87.767 393.297 88.108 393.54C88.4527 393.778 88.7367 394.085 88.9602 394.46C89.1837 394.835 89.2955 395.295 89.2955 395.841C89.2955 396.47 89.1307 397.038 88.8011 397.545C88.4754 398.053 87.9981 398.456 87.3693 398.756C86.7443 399.055 85.9848 399.205 85.0909 399.205C84.2576 399.205 83.536 399.07 82.9261 398.801C82.3201 398.532 81.8428 398.157 81.4943 397.676C81.1496 397.195 80.9545 396.636 80.9091 396H82.3636C82.4015 396.439 82.5492 396.803 82.8068 397.091C83.0682 397.375 83.3977 397.587 83.7955 397.727C84.197 397.864 84.6288 397.932 85.0909 397.932C85.6288 397.932 86.1117 397.845 86.5398 397.67C86.9678 397.492 87.3068 397.246 87.5568 396.932C87.8068 396.614 87.9318 396.242 87.9318 395.818C87.9318 395.432 87.8239 395.117 87.608 394.875C87.392 394.633 87.108 394.436 86.7557 394.284C86.4034 394.133 86.0227 394 85.6136 393.886L84.1818 393.477C83.2727 393.216 82.553 392.843 82.0227 392.358C81.4924 391.873 81.2273 391.239 81.2273 390.455C81.2273 389.803 81.4034 389.235 81.7557 388.75C82.1117 388.261 82.589 387.883 83.1875 387.614C83.7898 387.341 84.4621 387.205 85.2045 387.205C85.9545 387.205 86.6212 387.339 87.2045 387.608C87.7879 387.873 88.25 388.237 88.5909 388.699C88.9356 389.161 89.1174 389.686 89.1364 390.273H87.7727ZM95.2495 399.182C94.4086 399.182 93.6832 398.996 93.0734 398.625C92.4673 398.25 91.9995 397.727 91.6699 397.057C91.3442 396.383 91.1813 395.598 91.1813 394.705C91.1813 393.811 91.3442 393.023 91.6699 392.341C91.9995 391.655 92.4578 391.121 93.0449 390.739C93.6359 390.352 94.3252 390.159 95.1131 390.159C95.5677 390.159 96.0165 390.235 96.4597 390.386C96.9029 390.538 97.3063 390.784 97.6699 391.125C98.0336 391.462 98.3234 391.909 98.5393 392.466C98.7552 393.023 98.8631 393.708 98.8631 394.523V395.091H92.1359V393.932H97.4995C97.4995 393.439 97.401 393 97.204 392.614C97.0109 392.227 96.7343 391.922 96.3745 391.699C96.0184 391.475 95.598 391.364 95.1131 391.364C94.579 391.364 94.1169 391.496 93.7268 391.761C93.3404 392.023 93.043 392.364 92.8347 392.784C92.6264 393.205 92.5222 393.655 92.5222 394.136V394.909C92.5222 395.568 92.6359 396.127 92.8631 396.585C93.0942 397.04 93.4143 397.386 93.8234 397.625C94.2324 397.86 94.7078 397.977 95.2495 397.977C95.6018 397.977 95.9199 397.928 96.204 397.83C96.4919 397.727 96.74 397.576 96.9484 397.375C97.1567 397.17 97.3177 396.917 97.4313 396.614L98.7268 396.977C98.5904 397.417 98.3612 397.803 98.0393 398.136C97.7173 398.466 97.3196 398.723 96.8461 398.909C96.3726 399.091 95.8404 399.182 95.2495 399.182ZM102.404 387.364V399H101.063V387.364H102.404ZM106.361 387.364V399H105.02V387.364H106.361ZM117.182 399.182C116.394 399.182 115.703 398.994 115.108 398.619C114.517 398.244 114.055 397.72 113.722 397.045C113.392 396.371 113.228 395.583 113.228 394.682C113.228 393.773 113.392 392.979 113.722 392.301C114.055 391.623 114.517 391.097 115.108 390.722C115.703 390.347 116.394 390.159 117.182 390.159C117.97 390.159 118.659 390.347 119.25 390.722C119.845 391.097 120.307 391.623 120.637 392.301C120.97 392.979 121.137 393.773 121.137 394.682C121.137 395.583 120.97 396.371 120.637 397.045C120.307 397.72 119.845 398.244 119.25 398.619C118.659 398.994 117.97 399.182 117.182 399.182ZM117.182 397.977C117.781 397.977 118.273 397.824 118.659 397.517C119.046 397.21 119.332 396.807 119.517 396.307C119.703 395.807 119.796 395.265 119.796 394.682C119.796 394.098 119.703 393.555 119.517 393.051C119.332 392.547 119.046 392.14 118.659 391.83C118.273 391.519 117.781 391.364 117.182 391.364C116.584 391.364 116.091 391.519 115.705 391.83C115.318 392.14 115.032 392.547 114.847 393.051C114.661 393.555 114.568 394.098 114.568 394.682C114.568 395.265 114.661 395.807 114.847 396.307C115.032 396.807 115.318 397.21 115.705 397.517C116.091 397.824 116.584 397.977 117.182 397.977ZM123.344 402.273V390.273H124.639V391.659H124.798C124.897 391.508 125.033 391.314 125.207 391.08C125.385 390.841 125.639 390.629 125.969 390.443C126.302 390.254 126.753 390.159 127.321 390.159C128.056 390.159 128.703 390.343 129.264 390.71C129.825 391.078 130.262 391.598 130.576 392.273C130.891 392.947 131.048 393.742 131.048 394.659C131.048 395.583 130.891 396.384 130.576 397.062C130.262 397.737 129.826 398.259 129.27 398.631C128.713 398.998 128.071 399.182 127.344 399.182C126.783 399.182 126.334 399.089 125.997 398.903C125.66 398.714 125.4 398.5 125.219 398.261C125.037 398.019 124.897 397.818 124.798 397.659H124.684V402.273H123.344ZM124.662 394.636C124.662 395.295 124.758 395.877 124.951 396.381C125.145 396.881 125.427 397.273 125.798 397.557C126.169 397.837 126.624 397.977 127.162 397.977C127.722 397.977 128.19 397.83 128.565 397.534C128.944 397.235 129.228 396.833 129.417 396.33C129.611 395.822 129.707 395.258 129.707 394.636C129.707 394.023 129.612 393.47 129.423 392.977C129.237 392.481 128.955 392.089 128.576 391.801C128.201 391.509 127.73 391.364 127.162 391.364C126.616 391.364 126.158 391.502 125.787 391.778C125.415 392.051 125.135 392.434 124.946 392.926C124.756 393.415 124.662 393.985 124.662 394.636ZM137.049 390.273V391.409H132.526V390.273H137.049ZM133.844 388.182H135.185V396.5C135.185 396.879 135.24 397.163 135.35 397.352C135.464 397.538 135.608 397.663 135.782 397.727C135.96 397.788 136.147 397.818 136.344 397.818C136.492 397.818 136.613 397.811 136.708 397.795C136.803 397.777 136.879 397.761 136.935 397.75L137.208 398.955C137.117 398.989 136.99 399.023 136.827 399.057C136.665 399.095 136.458 399.114 136.208 399.114C135.829 399.114 135.458 399.032 135.094 398.869C134.735 398.706 134.435 398.458 134.197 398.125C133.962 397.792 133.844 397.371 133.844 396.864V388.182ZM139.226 399V390.273H140.567V399H139.226ZM139.908 388.818C139.646 388.818 139.421 388.729 139.232 388.551C139.046 388.373 138.953 388.159 138.953 387.909C138.953 387.659 139.046 387.445 139.232 387.267C139.421 387.089 139.646 387 139.908 387C140.169 387 140.393 387.089 140.578 387.267C140.768 387.445 140.862 387.659 140.862 387.909C140.862 388.159 140.768 388.373 140.578 388.551C140.393 388.729 140.169 388.818 139.908 388.818ZM146.728 399.182C145.94 399.182 145.249 398.994 144.654 398.619C144.064 398.244 143.601 397.72 143.268 397.045C142.939 396.371 142.774 395.583 142.774 394.682C142.774 393.773 142.939 392.979 143.268 392.301C143.601 391.623 144.064 391.097 144.654 390.722C145.249 390.347 145.94 390.159 146.728 390.159C147.516 390.159 148.206 390.347 148.797 390.722C149.391 391.097 149.853 391.623 150.183 392.301C150.516 392.979 150.683 393.773 150.683 394.682C150.683 395.583 150.516 396.371 150.183 397.045C149.853 397.72 149.391 398.244 148.797 398.619C148.206 398.994 147.516 399.182 146.728 399.182ZM146.728 397.977C147.327 397.977 147.819 397.824 148.206 397.517C148.592 397.21 148.878 396.807 149.064 396.307C149.249 395.807 149.342 395.265 149.342 394.682C149.342 394.098 149.249 393.555 149.064 393.051C148.878 392.547 148.592 392.14 148.206 391.83C147.819 391.519 147.327 391.364 146.728 391.364C146.13 391.364 145.637 391.519 145.251 391.83C144.865 392.14 144.579 392.547 144.393 393.051C144.208 393.555 144.115 394.098 144.115 394.682C144.115 395.265 144.208 395.807 144.393 396.307C144.579 396.807 144.865 397.21 145.251 397.517C145.637 397.824 146.13 397.977 146.728 397.977ZM154.231 393.75V399H152.89V390.273H154.185V391.636H154.299C154.503 391.193 154.814 390.837 155.231 390.568C155.647 390.295 156.185 390.159 156.844 390.159C157.435 390.159 157.952 390.28 158.395 390.523C158.839 390.761 159.183 391.125 159.43 391.614C159.676 392.098 159.799 392.712 159.799 393.455V399H158.458V393.545C158.458 392.86 158.28 392.326 157.924 391.943C157.568 391.557 157.079 391.364 156.458 391.364C156.03 391.364 155.647 391.456 155.31 391.642C154.977 391.828 154.714 392.098 154.52 392.455C154.327 392.811 154.231 393.242 154.231 393.75Z" fill="#F2F2F2"/>
<path d="M86.6307 359.341V347.273H89.6818V359.341H86.6307ZM82.1222 354.832V351.781H94.1903V354.832H82.1222ZM97.9545 362L105.19 347.682V347.562H96.7613V344.545H109.008V347.605L101.764 362H97.9545ZM117.918 362.239C116.714 362.239 115.64 362.017 114.697 361.574C113.759 361.131 113.015 360.52 112.464 359.741C111.913 358.963 111.626 358.071 111.603 357.065H115.182C115.222 357.741 115.506 358.29 116.035 358.71C116.563 359.131 117.191 359.341 117.918 359.341C118.498 359.341 119.009 359.213 119.452 358.957C119.901 358.696 120.251 358.335 120.501 357.875C120.756 357.409 120.884 356.875 120.884 356.273C120.884 355.659 120.753 355.119 120.492 354.653C120.236 354.187 119.881 353.824 119.427 353.562C118.972 353.301 118.452 353.168 117.867 353.162C117.356 353.162 116.859 353.267 116.376 353.477C115.898 353.687 115.526 353.974 115.259 354.338L111.978 353.75L112.805 344.545H123.475V347.562H115.847L115.395 351.935H115.498C115.805 351.503 116.268 351.145 116.887 350.861C117.506 350.577 118.199 350.435 118.967 350.435C120.018 350.435 120.955 350.682 121.779 351.176C122.603 351.67 123.253 352.349 123.731 353.213C124.208 354.071 124.444 355.06 124.438 356.179C124.444 357.355 124.171 358.401 123.62 359.315C123.074 360.224 122.31 360.94 121.327 361.463C120.35 361.98 119.214 362.239 117.918 362.239ZM136.806 358.727V357.807C136.806 357.108 136.954 356.466 137.249 355.881C137.55 355.29 137.985 354.818 138.553 354.466C139.127 354.108 139.826 353.929 140.65 353.929C141.485 353.929 142.187 354.105 142.755 354.457C143.329 354.81 143.76 355.281 144.05 355.872C144.346 356.457 144.493 357.102 144.493 357.807V358.727C144.493 359.426 144.346 360.071 144.05 360.662C143.755 361.247 143.32 361.716 142.746 362.068C142.172 362.426 141.474 362.605 140.65 362.605C139.814 362.605 139.113 362.426 138.545 362.068C137.976 361.716 137.545 361.247 137.249 360.662C136.954 360.071 136.806 359.426 136.806 358.727ZM139.286 357.807V358.727C139.286 359.131 139.383 359.511 139.576 359.869C139.775 360.227 140.133 360.406 140.65 360.406C141.167 360.406 141.519 360.23 141.707 359.878C141.9 359.526 141.996 359.142 141.996 358.727V357.807C141.996 357.392 141.905 357.006 141.724 356.648C141.542 356.29 141.184 356.111 140.65 356.111C140.138 356.111 139.783 356.29 139.584 356.648C139.385 357.006 139.286 357.392 139.286 357.807ZM127.849 348.739V347.818C127.849 347.114 127.999 346.469 128.3 345.884C128.601 345.293 129.036 344.821 129.604 344.469C130.178 344.116 130.871 343.94 131.684 343.94C132.525 343.94 133.229 344.116 133.797 344.469C134.366 344.821 134.797 345.293 135.093 345.884C135.388 346.469 135.536 347.114 135.536 347.818V348.739C135.536 349.443 135.385 350.088 135.084 350.673C134.789 351.259 134.354 351.727 133.78 352.08C133.212 352.426 132.513 352.599 131.684 352.599C130.854 352.599 130.153 352.423 129.579 352.071C129.01 351.713 128.579 351.244 128.283 350.665C127.993 350.08 127.849 349.437 127.849 348.739ZM130.346 347.818V348.739C130.346 349.153 130.442 349.537 130.635 349.889C130.834 350.241 131.184 350.418 131.684 350.418C132.207 350.418 132.562 350.241 132.749 349.889C132.942 349.537 133.039 349.153 133.039 348.739V347.818C133.039 347.403 132.948 347.017 132.766 346.659C132.584 346.301 132.224 346.122 131.684 346.122C131.178 346.122 130.829 346.304 130.635 346.668C130.442 347.031 130.346 347.415 130.346 347.818ZM128.974 362L140.974 344.545H143.207L131.207 362H128.974Z" fill="white"/>
<path d="M171.71 353.29L166.71 348.29C166.615 348.199 166.503 348.127 166.38 348.08C166.137 347.98 165.864 347.98 165.62 348.08C165.498 348.127 165.385 348.199 165.29 348.29L160.29 353.29C160.197 353.383 160.123 353.494 160.073 353.616C160.022 353.737 159.996 353.868 159.996 354C159.996 354.266 160.102 354.522 160.29 354.71C160.479 354.898 160.734 355.004 161 355.004C161.267 355.004 161.522 354.898 161.71 354.71L165 351.41V359C165 359.265 165.106 359.519 165.293 359.707C165.481 359.894 165.735 360 166 360C166.266 360 166.52 359.894 166.707 359.707C166.895 359.519 167 359.265 167 359V351.41L170.29 354.71C170.383 354.804 170.494 354.878 170.616 354.929C170.738 354.979 170.868 355.006 171 355.006C171.132 355.006 171.263 354.979 171.385 354.929C171.507 354.878 171.617 354.804 171.71 354.71C171.804 354.617 171.878 354.506 171.929 354.384C171.98 354.263 172.006 354.132 172.006 354C172.006 353.868 171.98 353.737 171.929 353.615C171.878 353.493 171.804 353.383 171.71 353.29Z" fill="#FD8589"/>
<g filter="url(#filter1_d_1_415)">
<rect x="355" y="255" width="169" height="84" rx="16" fill="#491F98"/>
<path d="M405.322 296.182H407.334L407.351 294.213C411.041 293.932 413.18 291.972 413.189 289.014C413.18 286.108 410.99 284.565 407.956 283.884L407.453 283.764L407.487 279.503C408.621 279.767 409.311 280.491 409.413 281.565H412.95C412.907 278.744 410.802 276.724 407.521 276.366L407.538 274.364H405.527L405.51 276.349C402.177 276.673 399.825 278.685 399.842 281.591C399.834 284.165 401.649 285.639 404.598 286.347L405.416 286.551L405.373 291.06C403.984 290.795 403.047 289.943 402.953 288.52H399.382C399.467 291.963 401.726 293.889 405.339 294.205L405.322 296.182ZM407.385 291.06L407.419 287.08C408.74 287.497 409.456 288.034 409.464 289.006C409.456 290.037 408.672 290.804 407.385 291.06ZM405.442 283.244C404.376 282.878 403.609 282.324 403.626 281.344C403.626 280.432 404.274 279.724 405.476 279.477L405.442 283.244ZM423.402 276.545H419.934L415.613 279.281V282.554L419.61 280.048H419.712V294H423.402V276.545ZM434.166 294.239C438.052 294.239 440.694 291.707 440.686 288.179C440.694 284.838 438.359 282.435 435.214 282.435C433.68 282.435 432.359 283.074 431.745 283.935H431.643L432.095 279.562H439.723V276.545H429.052L428.226 285.75L431.507 286.338C432.044 285.614 433.083 285.162 434.115 285.162C435.87 285.17 437.132 286.44 437.132 288.273C437.132 290.088 435.896 291.341 434.166 291.341C432.7 291.341 431.515 290.42 431.43 289.065H427.851C427.919 292.082 430.552 294.239 434.166 294.239ZM445.117 294.222C446.208 294.222 447.154 293.31 447.162 292.176C447.154 291.06 446.208 290.148 445.117 290.148C443.992 290.148 443.063 291.06 443.071 292.176C443.063 293.31 443.992 294.222 445.117 294.222ZM456.262 294.239C460.182 294.239 462.986 292.082 462.978 289.099C462.986 286.926 461.605 285.375 459.04 285.051V284.915C460.992 284.565 462.338 283.185 462.33 281.224C462.338 278.472 459.926 276.307 456.313 276.307C452.733 276.307 450.04 278.403 449.989 281.42H453.526C453.568 280.091 454.787 279.23 456.296 279.23C457.787 279.23 458.784 280.134 458.776 281.446C458.784 282.818 457.617 283.747 455.938 283.747H454.31V286.457H455.938C457.915 286.457 459.151 287.446 459.142 288.852C459.151 290.241 457.958 291.196 456.27 291.196C454.642 291.196 453.424 290.344 453.355 289.065H449.639C449.699 292.116 452.426 294.239 456.262 294.239ZM465.87 294H478.313V290.983H470.984V290.864L473.532 288.366C477.12 285.094 478.083 283.457 478.083 281.472C478.083 278.446 475.612 276.307 471.87 276.307C468.205 276.307 465.691 278.497 465.7 281.923H469.203C469.194 280.253 470.251 279.23 471.845 279.23C473.379 279.23 474.521 280.185 474.521 281.719C474.521 283.108 473.669 284.062 472.083 285.588L465.87 291.341V294Z" fill="white"/>
<path d="M388.609 319H390.018V314.75H392.564C395.274 314.75 396.496 313.102 396.496 311.045C396.496 308.989 395.274 307.364 392.541 307.364H388.609V319ZM390.018 313.5V308.614H392.496C394.388 308.614 395.109 309.648 395.109 311.045C395.109 312.443 394.388 313.5 392.518 313.5H390.018ZM398.744 319H400.085V313.477C400.085 312.295 401.017 311.432 402.289 311.432C402.647 311.432 403.017 311.5 403.107 311.523V310.159C402.954 310.148 402.602 310.136 402.403 310.136C401.357 310.136 400.448 310.727 400.13 311.591H400.039V310.273H398.744V319ZM404.857 319H406.198V310.273H404.857V319ZM405.539 308.818C406.062 308.818 406.493 308.409 406.493 307.909C406.493 307.409 406.062 307 405.539 307C405.016 307 404.584 307.409 404.584 307.909C404.584 308.409 405.016 308.818 405.539 308.818ZM412.359 319.182C414.291 319.182 415.564 318 415.791 316.455H414.45C414.2 317.409 413.405 317.977 412.359 317.977C410.768 317.977 409.746 316.659 409.746 314.636C409.746 312.659 410.791 311.364 412.359 311.364C413.541 311.364 414.246 312.091 414.45 312.886H415.791C415.564 311.25 414.177 310.159 412.337 310.159C409.973 310.159 408.405 312.023 408.405 314.682C408.405 317.295 409.905 319.182 412.359 319.182ZM421.57 319.182C423.343 319.182 424.639 318.295 425.048 316.977L423.752 316.614C423.411 317.523 422.622 317.977 421.57 317.977C419.997 317.977 418.911 316.96 418.849 315.091H425.184V314.523C425.184 311.273 423.252 310.159 421.434 310.159C419.07 310.159 417.502 312.023 417.502 314.705C417.502 317.386 419.048 319.182 421.57 319.182ZM418.849 313.932C418.94 312.574 419.9 311.364 421.434 311.364C422.889 311.364 423.82 312.455 423.82 313.932H418.849ZM432.044 319H433.385V310.273H432.044V319ZM432.726 308.818C433.248 308.818 433.68 308.409 433.68 307.909C433.68 307.409 433.248 307 432.726 307C432.203 307 431.771 307.409 431.771 307.909C431.771 308.409 432.203 308.818 432.726 308.818ZM437.342 313.75C437.342 312.227 438.285 311.364 439.569 311.364C440.813 311.364 441.569 312.176 441.569 313.545V319H442.91V313.455C442.91 311.227 441.722 310.159 439.955 310.159C438.637 310.159 437.819 310.75 437.41 311.636H437.296V310.273H436.001V319H437.342V313.75ZM453.476 319.182C455.157 319.182 455.726 318.136 456.021 317.659H456.18V319H457.476V307.364H456.135V311.659H456.021C455.726 311.205 455.203 310.159 453.498 310.159C451.294 310.159 449.771 311.909 449.771 314.659C449.771 317.432 451.294 319.182 453.476 319.182ZM453.657 317.977C451.976 317.977 451.112 316.5 451.112 314.636C451.112 312.795 451.953 311.364 453.657 311.364C455.294 311.364 456.157 312.682 456.157 314.636C456.157 316.614 455.271 317.977 453.657 317.977ZM463.823 319.182C466.187 319.182 467.778 317.386 467.778 314.682C467.778 311.955 466.187 310.159 463.823 310.159C461.459 310.159 459.868 311.955 459.868 314.682C459.868 317.386 461.459 319.182 463.823 319.182ZM463.823 317.977C462.028 317.977 461.209 316.432 461.209 314.682C461.209 312.932 462.028 311.364 463.823 311.364C465.618 311.364 466.437 312.932 466.437 314.682C466.437 316.432 465.618 317.977 463.823 317.977ZM471.325 307.364H469.984V319H471.325V307.364ZM475.282 307.364H473.941V319H475.282V307.364ZM480.466 319.205C481.989 319.205 482.785 318.386 483.057 317.818H483.125V319H484.466V313.25C484.466 310.477 482.353 310.159 481.239 310.159C479.921 310.159 478.421 310.614 477.739 312.205L479.012 312.659C479.307 312.023 480.006 311.341 481.285 311.341C482.518 311.341 483.125 311.994 483.125 313.114V313.159C483.125 313.807 482.466 313.75 480.875 313.955C479.256 314.165 477.489 314.523 477.489 316.523C477.489 318.227 478.807 319.205 480.466 319.205ZM480.671 318C479.603 318 478.83 317.523 478.83 316.591C478.83 315.568 479.762 315.25 480.807 315.114C481.375 315.045 482.898 314.886 483.125 314.614V315.841C483.125 316.932 482.262 318 480.671 318ZM487.074 319H488.415V313.477C488.415 312.295 489.347 311.432 490.619 311.432C490.977 311.432 491.347 311.5 491.437 311.523V310.159C491.284 310.148 490.932 310.136 490.733 310.136C489.687 310.136 488.778 310.727 488.46 311.591H488.369V310.273H487.074V319Z" fill="#F2F2F2"/>
</g>
<path d="M73.801 169.562C61.8839 169.562 40 184.55 40 184.55V250H540V134.589C540 134.589 518.954 143.744 509.388 140.584C495.902 136.13 483.24 114.754 474.949 114.105C462.194 113.105 466.02 119.6 439.872 119.6C415 119.6 426.185 132.59 401.607 132.59C388.15 132.59 368.444 143.585 368.444 143.585H329.541C311.046 143.585 307.276 175.903 286.811 173.562C266.976 171.292 267.679 166.065 251.735 166.065C236.14 166.065 233.738 173.711 217.934 172.06C198.801 170.062 199.439 148.578 173.291 148.578C141.403 148.578 135.663 175.058 110.153 177.056C91.4237 178.523 94.3698 169.562 73.801 169.562Z" fill="url(#paint1_linear_1_415)"/>
<path d="M40 185C40 185 61.8839 170 73.801 170C94.3698 170 91.4237 178.969 110.153 177.5C135.663 175.5 141.403 149 173.291 149C199.439 149 198.801 170.5 217.934 172.5C233.738 174.152 236.14 166.5 251.735 166.5C267.679 166.5 266.976 171.732 286.811 174.003C307.276 176.346 311.046 144.003 329.541 144.003C345.139 144.003 368.444 144.003 368.444 144.003C368.444 144.003 388.15 133 401.607 133C426.185 133 415 120 439.872 120C466.02 120 462.194 113.5 474.949 114.5C483.24 115.15 495.902 136.543 509.388 141C518.954 144.162 540 135 540 135" stroke="#6EDCB5" stroke-width="4"/>
<defs>
<filter id="filter0_b_1_415" x="-186" y="-7" width="678" height="684" filterUnits="userSpaceOnUse" color-interpolation-filters="sRGB">
<feFlood flood-opacity="0" result="BackgroundImageFix"/>
<feGaussianBlur in="BackgroundImage" stdDeviation="125"/>
<feComposite in2="SourceAlpha" operator="in" result="effect1_backgroundBlur_1_415"/>
<feBlend mode="normal" in="SourceGraphic" in2="effect1_backgroundBlur_1_415" result="shape"/>
</filter>
<filter id="filter1_d_1_415" x="330" y="235" width="249" height="164" filterUnits="userSpaceOnUse" color-interpolation-filters="sRGB">
<feFlood flood-opacity="0" result="BackgroundImageFix"/>
<feColorMatrix in="SourceAlpha" type="matrix" values="0 0 0 0 0 0 0 0 0 0 0 0 0 0 0 0 0 0 127 0" result="hardAlpha"/>
<feOffset dx="15" dy="20"/>
<feGaussianBlur stdDeviation="20"/>
<feColorMatrix type="matrix" values="0 0 0 0 0.454902 0 0 0 0 0.458824 0 0 0 0 0.854902 0 0 0 0.15 0"/>
<feBlend mode="normal" in2="BackgroundImageFix" result="effect1_dropShadow_1_415"/>
<feBlend mode="normal" in="SourceGraphic" in2="effect1_dropShadow_1_415" result="shape"/>
</filter>
<linearGradient id="paint0_linear_1_415" x1="59.9893" y1="39.9905" x2="59.9893" y2="79.9961" gradientUnits="userSpaceOnUse">
<stop stop-color="#F9AA4B"/>
<stop offset="1" stop-color="#F7931A"/>
</linearGradient>
<linearGradient id="paint1_linear_1_415" x1="290" y1="114" x2="290" y2="250" gradientUnits="userSpaceOnUse">
<stop stop-color="#6EDCB5" stop-opacity="0.4"/>
<stop offset="1" stop-color="#6EDCB5" stop-opacity="0"/>
</linearGradient>
<clipPath id="clip0_1_415">
<rect width="40" height="40" fill="white" transform="translate(40 40)"/>
</clipPath>
</defs>
</svg>
